:FULLY-SPECIFIED
:FORCE-ALL-JOINTS-BE-3DOF
:DEGREES
611
root 5.95678 16.2944 -2.66861 5.81698 64.2103 -1.45333
lfemur -19.6796 17.8865 -19.4241
ltibia 52.0293 -0 0
lfoot -24.4201 9.67895 -0.83617
ltoes 0.0240357 -0 0
rfemur -44.5731 -12.0858 19.955
rtibia 53.7973 -0 0
rfoot -0.387319 8.14046 0.836484
rtoes -20.1936 0 0
lowerback 2.8804 -2.51158 -5.19192
upperback 0.941688 -3.44271 1.53388
thorax -0.344161 -1.74463 4.57336
lowerneck -6.61978 -11.0451 -2.75615
upperneck 10.8811 -15.2536 6.165
head 5.15501 -7.22521 1.23169
lclavicle 2.17848e-14 -4.86258e-15 -2.76632e-32
lhumerus -20.4868 -37.2524 86.6782
lradius 60.3018 -0 0
lwrist 25.4666 0 0
lhand -17.1075 -1.95581 0.0213065
lfingers 7.12502 -0 0
lthumb 9.13092 27.8098 0.0174886
rclavicle 2.17848e-14 -4.86258e-15 -2.76632e-32
rhumerus 9.23915 7.6059 -72.0684
rradius 119.12 -0 0
rwrist -41.3351 0 0
rhand -27.5957 -26.4057 -0.00385037
rfingers 7.12502 -0 0
rthumb -0.995446 -56.3836 -0.0037196
612
root 5.94794 16.288 -2.6231 6.26267 62.9425 -1.10714
lfemur -19.8025 18.0514 -19.4455
ltibia 52.4729 -0 0
lfoot -23.9747 9.46342 -0.874349
ltoes 0.0368469 -0 0
rfemur -44.6013 -12.173 20.1118
rtibia 54.0139 -0 0
rfoot -0.764185 7.88541 0.874638
rtoes -19.8311 0 0
lowerback 2.82175 -2.57828 -5.12004
upperback 0.893383 -3.52688 1.52437
thorax -0.361182 -1.78585 4.52242
lowerneck -6.68174 -10.9391 -2.70187
upperneck 10.733 -15.1002 6.11886
head 5.10988 -7.1553 1.22086
lclavicle 2.16803e-14 -4.89316e-15 -2.89181e-32
lhumerus -20.3136 -37.7907 86.7412
lradius 60.7195 -0 0
lwrist 25.506 0 0
lhand -17.0231 -1.92665 0.0222732
lfingers 7.12502 -0 0
lthumb 9.21231 27.8346 0.0182821
rclavicle 2.16803e-14 -4.89316e-15 -2.89181e-32
rhumerus 8.32509 7.1325 -71.9214
rradius 118.265 -0 0
rwrist -40.993 0 0
rhand -27.5945 -26.7597 -0.00402562
rfingers 7.12502 -0 0
rthumb -0.994236 -56.7376 -0.00388889
613
root 5.93911 16.2815 -2.5776 6.67379 61.6736 -0.796048
lfemur -19.9257 18.2162 -19.4673
ltibia 52.9165 -0 0
lfoot -23.5292 9.24761 -0.910851
ltoes 0.0496582 -0 0
rfemur -44.6296 -12.2602 20.2687
rtibia 54.2305 -0 0
rfoot -1.14122 7.63011 0.911115
rtoes -19.4686 0 0
lowerback 2.76302 -2.64491 -5.04809
upperback 0.845088 -3.61105 1.51492
thorax -0.378167 -1.82709 4.47149
lowerneck -6.74357 -10.8329 -2.64773
upperneck 10.5848 -14.9469 6.07233
head 5.06476 -7.08539 1.20998
lclavicle 2.15758e-14 -4.92374e-15 -3.01172e-32
lhumerus -20.1398 -38.329 86.8025
lradius 61.1372 -0 0
lwrist 25.5455 0 0
lhand -16.9387 -1.89748 0.023197
lfingers 7.12502 -0 0
lthumb 9.2937 27.8594 0.0190404
rclavicle 2.15758e-14 -4.92374e-15 -3.01172e-32
rhumerus 7.41072 6.66148 -71.767
rradius 117.411 -0 0
rwrist -40.6509 0 0
rhand -27.5932 -27.1137 -0.00419312
rfingers 7.12502 -0 0
rthumb -0.993025 -57.0915 -0.0040507
614
root 5.93028 16.2751 -2.53209 7.05483 60.4038 -0.515603
lfemur -20.049 18.381 -19.4895
ltibia 53.3602 -0 0
lfoot -23.0835 9.03151 -0.945674
ltoes 0.0624694 -0 0
rfemur -44.6583 -12.3473 20.4257
rtibia 54.4472 -0 0
rfoot -1.51842 7.37457 0.94591
rtoes -19.106 0 0
lowerback 2.7042 -2.71146 -4.97607
upperback 0.796801 -3.69523 1.50554
thorax -0.395116 -1.86835 4.42057
lowerneck -6.80528 -10.7267 -2.59372
upperneck 10.4366 -14.7937 6.02543
head 5.01962 -7.0155 1.19904
lclavicle 2.14713e-14 -4.95432e-15 -3.12606e-32
lhumerus -19.9655 -38.8676 86.8623
lradius 61.5549 -0 0
lwrist 25.5849 0 0
lhand -16.8543 -1.86832 0.0240778
lfingers 7.12502 -0 0
lthumb 9.3751 27.8842 0.0197633
rclavicle 2.14713e-14 -4.95432e-15 -3.12606e-32
rhumerus 6.49592 6.19298 -71.6052
rradius 116.557 -0 0
rwrist -40.3088 0 0
rhand -27.592 -27.4677 -0.00435287
rfingers 7.12502 -0 0
rthumb -0.991813 -57.4455 -0.00420503
